<?xml version="1.0" encoding="UTF-8" standalone="no"?>
<!DOCTYPE svg PUBLIC "-//W3C//DTD SVG 1.1//EN" "http://www.w3.org/Graphics/SVG/1.1/DTD/svg11.dtd">
<svg width="100%" height="100%" viewBox="0 0 3071 2386" version="1.1" xmlns="http://www.w3.org/2000/svg" xmlns:xlink="http://www.w3.org/1999/xlink" xml:space="preserve" xmlns:serif="http://www.serif.com/" style="fill-rule:evenodd;clip-rule:evenodd;stroke-linejoin:round;stroke-miterlimit:2;">
    <g>
        <path d="M372.783,313.74C373.024,295.885 368.42,214.745 377.272,205.575C383.647,198.972 474.624,179.627 489.534,176.078C846.368,91.105 1218.24,50.472 1591.4,55.682C1921.4,61.113 2248.82,102.257 2564.2,177.926C2583.03,182.511 2601.65,186.268 2621.56,191.936C2662.98,203.723 2672.21,194.16 2671.79,232.261C2671.51,257.966 2671.29,288.459 2671.72,313.74L2799.52,313.656C2813.8,313.651 2853.45,312.939 2865.7,314.838C2869.28,317.703 2871.43,319.931 2871.42,324.195C2871.41,334.903 2789.09,499.022 2777.34,524.956L2838.25,651.604C2844.22,664.006 2874.23,720.021 2870.45,730.506C2867.24,733.541 2865.6,735.226 2859.66,735.294C2825.55,735.681 2790.67,735.507 2756.62,735.511L2573.98,735.51C2543.97,735.507 2510.27,734.903 2480.49,735.59L2389.03,1377.49C2380.96,1432.34 2375.54,1486.33 2356.27,1539.45C2354.24,1545.05 2349.15,1558.88 2348.77,1564.09C2359.14,1561.25 2387.21,1551.06 2394.82,1553.41C2405.85,1561.99 2408.53,1585.77 2411.32,1598.34C2416.18,1620.91 2421.25,1643.46 2426.54,1665.98C2469.24,1649.76 2511.39,1633.63 2552.86,1615.51C2574.49,1606.05 2595.79,1595.1 2617.6,1586.16C2640.75,1576.68 2633.59,1610.02 2632.55,1617.46C2625.23,1672.58 2605.04,1726.2 2572.98,1775.69C2570.14,1780.16 2567.24,1784.6 2564.28,1789.02C2618.31,1823.54 2689.43,1835.21 2754.33,1850.69C2765.68,1853.4 2761.05,1868.89 2752.97,1872.81C2646.2,1951.65 2517.92,2017.74 2371.99,2041.58C2367.99,2042.24 2365.06,2040.76 2362.45,2038.88C2357.35,2028.74 2356.42,1992.95 2355.57,1980.01C2219.36,2016.78 2045.04,2049.76 1902.13,2063.92C1801.57,2142.03 1693.45,2214.02 1578.71,2279.27C1518.54,2313.59 1531.96,2313.32 1472.66,2279.52C1393.9,2234.8 1318.25,2186.87 1246.03,2135.92C1212.65,2112.38 1182.32,2088.87 1149.87,2064.96C1117.88,2059.96 1084.42,2056.49 1052.09,2051.64C957.191,2038 863.341,2020.28 770.968,1998.57C748.089,1993 715.557,1985.79 693.87,1978.95C693.173,1989.49 692.495,2035.38 684.702,2040.64C674.915,2043.16 660.71,2038.61 650.131,2036.5C514.298,2009.36 393.566,1945.45 293.705,1870.55C284.119,1861.66 286.284,1851.86 301.59,1848.85C364.572,1836.49 433.67,1820.33 485.227,1789.09C484.525,1788.13 483.838,1787.17 483.164,1786.2C447.585,1734.56 425.146,1678.08 417.076,1619.85C415.937,1611.75 408.148,1577.36 431.453,1586.02C450.899,1593.25 469.936,1604.5 489.139,1612.48C532.294,1630.42 575.465,1649.23 620.156,1664.81C626.919,1644.88 641.326,1564.43 653.579,1555.47C662.248,1554.34 690.21,1564.43 701.656,1567.16L703.491,1567.59C702.837,1562.59 696.784,1546.57 694.871,1540.47C689.733,1524.06 683.401,1506.96 680.017,1490.23C670.68,1444.08 664.533,1396.39 657.686,1349.92L594.254,904.619L578.315,790.465C576.89,780.09 572.841,743.264 569.597,734.966C551.416,736.037 526.77,735.544 508.096,735.54L403.459,735.496C333.015,735.459 261.667,737.406 191.302,735.476C186.999,735.358 180.954,735.552 177.5,733.412C174.905,731.804 173.149,729.521 173.143,726.927C173.122,717.728 258.463,539.876 267.891,525.089C235.151,460.7 205.454,393.92 174.167,329.01C171.772,324.041 173.363,317.777 179.371,314.689C193.749,313 230.118,313.694 246.202,313.696L372.783,313.74Z" style="fill:rgb(78,3,132);fill-rule:nonzero;"/>
        <path d="M1437.76,77.475C1489.03,75.815 1540.43,76.692 1591.74,77.392C1861.78,81.591 2130.29,110.185 2391.83,162.599C2455.9,175.662 2519.63,189.721 2582.97,204.768C2605.34,209.98 2627.71,215.982 2650.08,220.833L2650.13,467.838L2650.14,549.54C2650.15,563.021 2650.88,584.093 2649.29,596.898C2641.31,599.01 2571.83,580.539 2559.37,577.576C2512.16,566.461 2464.69,556.021 2416.99,546.262C2151.89,491.808 1879.51,461.566 1605.39,456.151C1549.8,455.687 1492.22,454.922 1436.7,456.094C1197.87,461.309 960.296,484.978 727.497,526.75C661.84,538.872 596.551,552.167 531.682,566.624C488.587,576.555 436.986,590.631 394.894,599.031L394.988,220.863C426.626,215.094 479.09,201.076 511.961,193.503C577.721,178.365 643.933,164.437 710.541,151.731C948.936,107.284 1192.68,82.395 1437.76,77.475Z" style="fill:rgb(254,214,0);fill-rule:nonzero;"/>
        <g>
            <path d="M1132.9,150.765C1169.95,149.187 1221.3,145.84 1241.16,177.016C1249.81,191.252 1251.74,208.485 1244.4,223.24C1233.02,246.134 1206.36,255.922 1179.71,265.264C1224.49,269.925 1263.21,280.802 1269.23,321.678C1277.19,375.769 1227.8,397.048 1166.25,400.969C1128.31,404.516 1064.5,408.046 1026.47,409.163C1024.61,385.854 1039.1,398.534 1054.9,387.521C1058.73,384.853 1060.46,375.974 1060.4,371.893C1059.97,344.341 1057.38,316.661 1055.81,289.077L1052.14,225.581C1051.32,211.135 1055.66,177.737 1032.94,175.308C1014.05,173.289 1012.43,172.969 1011.92,158.438C1051.83,154.905 1092.85,154.437 1132.9,150.765Z" style="fill:rgb(78,3,132);fill-rule:nonzero;"/>
            <path d="M1122.55,278.947C1130.06,278.412 1137.63,278.14 1145.18,278.112C1198.32,277.911 1206.07,326.528 1195.07,357.248C1192.38,364.759 1188.54,369.41 1182.41,375.576C1164.01,388.587 1125.69,391.848 1123.97,367.224C1121.99,338.79 1119.74,309.898 1119.67,281.497C1120.63,280.647 1121.59,279.797 1122.55,278.947Z" style="fill:rgb(254,214,0);fill-rule:nonzero;"/>
            <path d="M1118.41,168.338C1159.76,164.187 1178.92,178.031 1180.23,211.465C1180.86,227.539 1176.28,240.204 1161.39,252.029C1145.45,260.682 1136.6,261.167 1117.92,261.793C1116.08,236.568 1112.71,197.284 1113.57,171.256C1113.62,169.513 1115.63,169.392 1118.41,168.338Z" style="fill:rgb(254,214,0);fill-rule:nonzero;"/>
            <path d="M1351.54,139.102L1466.91,140.049C1487.55,195.829 1507.8,251.695 1527.66,307.644L1565.1,213.471C1574,191.087 1586.03,164.401 1589.24,141.524L1701,142.264L1701.06,155.595C1689.13,157.702 1681.74,158.696 1670.74,162.712C1669.89,164.224 1667.24,169.009 1667.15,170.385C1663.15,231.638 1666.31,293.479 1663.14,354.835C1661.93,378.152 1692.5,375.693 1700.64,386.173C1700.9,389.856 1700.59,389.649 1697.96,392.828C1696.43,393.406 1695,394.168 1693.36,394.099C1676.62,393.395 1570.48,395.055 1563.54,390.737C1560.31,371.999 1583.9,381.718 1595.94,370.269C1599.07,367.29 1602.73,362.171 1602.66,358.26C1602.34,340.947 1602.41,323.677 1602.5,306.357L1603.66,188.445C1603.9,182.106 1603.57,176.156 1603.28,169.835C1573.4,242.311 1545.33,316.264 1514.62,388.385L1492.84,388.206C1470.22,318.394 1439.88,234.443 1413.42,165.147C1411.75,208.967 1413.02,253.185 1411.76,297.091C1411.2,316.797 1410.21,340.871 1417.96,359.823C1422.46,370.844 1439.89,373.394 1451.64,377.343C1456.79,379.073 1455.81,388.405 1452.93,391.412C1429.89,394.664 1387.81,389.179 1362.91,391.408C1355.89,392.037 1347.23,389.361 1346.47,382.937C1354.08,370.693 1383.23,375.42 1386.03,357.142C1394.69,300.716 1390.16,241.487 1390.83,184.629C1391.09,163.404 1374.58,156.577 1351.22,152.52L1351.54,139.102Z" style="fill:rgb(78,3,132);fill-rule:nonzero;"/>
            <path d="M1794.74,149.729C1835.06,150.129 1891.49,156.664 1933.79,158.749C1933.92,162.839 1933.49,168.266 1933.33,172.466C1912.72,173.688 1896.21,172.068 1894.52,191.283C1889.11,252.581 1885.03,314.134 1881.6,375.516C1880.71,391.523 1905.15,391.026 1915.46,397.768C1918.58,401.444 1917.24,405.436 1916.68,409.973C1871.63,407.731 1822.68,403.902 1777.6,400.358C1777.62,396.174 1778.09,391.037 1778.33,386.771C1804.71,386.836 1816.41,388.477 1818.2,364.658C1822.59,306.09 1827.22,246.981 1830.41,188.415C1831.56,167.415 1811.94,171.383 1796.7,162.173C1793.19,160.052 1794.57,153.319 1794.74,149.729Z" style="fill:rgb(78,3,132);fill-rule:nonzero;"/>
        </g>
        <path d="M201.384,335.311C254.962,333.794 318.353,335.075 372.688,335.089C375.467,408.287 370.88,483.379 372.693,556.589C372.986,568.431 370.774,616.682 376.075,620.457C402.615,639.354 517.564,696.853 541.095,714.091C512.808,714.535 482.051,714.141 453.602,714.159L200.985,714.144C207.282,698.163 217.798,677.973 225.439,662.076L268.365,572.813C275.26,558.472 285.537,538.653 290.805,524.355C286.983,512.905 274.007,487.921 268.299,476.044L225.692,387.41C218.094,371.579 207.593,351.215 201.384,335.311Z" style="fill:rgb(254,214,0);fill-rule:nonzero;"/>
        <path d="M2671.97,335.116L2844.6,335.126C2834.5,352.046 2819.68,385.912 2810.79,404.441C2791.39,444.402 2772.3,484.454 2753.52,524.593C2762.99,546.516 2775.7,571.31 2786.24,593.303L2844.43,714.159L2764.35,714.159L2503.81,714.164C2511.17,708.132 2531.94,697.219 2541.44,691.979L2625.05,645.891C2638.63,638.398 2653.9,630.418 2666.66,622.109C2670.74,618.991 2672.23,610.456 2672.32,606.265C2674.28,516.014 2669.36,425.334 2671.97,335.116Z" style="fill:rgb(254,214,0);fill-rule:nonzero;"/>
        <path d="M2471.09,580.407C2485.81,581.583 2624.2,613.31 2627.04,618.931C2618.36,625.565 2576.93,647.487 2564.7,654.619C2536.04,668.907 2500.11,690.452 2471.23,706.262C2469.94,665.658 2471.09,621.313 2471.09,580.407Z" style="fill:rgb(254,214,0);fill-rule:nonzero;"/>
        <path d="M566.235,581.78C570.314,580.936 568.353,581.034 572.203,581.778C575.004,587.415 573.279,691.748 573.251,706.073C547.316,693.214 511.085,671.66 485.23,657.251L414.19,617.584C452.99,606.25 526.142,590.015 566.235,581.78Z" style="fill:rgb(254,214,0);fill-rule:nonzero;"/>
        <path d="M2348.77,1564.09C2359.14,1561.25 2387.21,1551.06 2394.82,1553.41C2405.85,1561.99 2408.53,1585.77 2411.32,1598.34C2416.18,1620.91 2421.25,1643.46 2426.54,1665.98C2469.24,1649.76 2511.39,1633.63 2552.86,1615.51C2574.49,1606.05 2595.79,1595.1 2617.6,1586.16C2640.75,1576.68 2633.59,1610.02 2632.55,1617.46C2625.23,1672.58 2605.04,1726.2 2572.98,1775.69C2570.14,1780.16 2567.24,1784.6 2564.28,1789.02C2618.31,1823.54 2689.43,1835.21 2754.33,1850.69C2765.68,1853.4 2761.05,1868.89 2752.97,1872.81C2646.2,1951.65 2517.92,2017.74 2371.99,2041.58C2367.99,2042.24 2365.06,2040.76 2362.45,2038.88C2357.35,2028.74 2356.42,1992.95 2355.57,1980.01C2219.36,2016.78 2045.04,2049.76 1902.13,2063.92C1801.57,2142.03 1693.45,2214.02 1578.71,2279.27C1518.54,2313.59 1531.96,2313.32 1472.66,2279.52C1393.9,2234.8 1318.25,2186.87 1246.03,2135.92C1212.65,2112.38 1182.32,2088.87 1149.87,2064.96C1117.88,2059.96 1084.42,2056.49 1052.09,2051.64C957.191,2038 863.341,2020.28 770.968,1998.57C748.089,1993 715.557,1985.79 693.87,1978.95C693.173,1989.49 692.495,2035.38 684.702,2040.64C674.915,2043.16 660.71,2038.61 650.131,2036.5C514.298,2009.36 393.566,1945.45 293.705,1870.55C284.119,1861.66 286.284,1851.86 301.59,1848.85C364.572,1836.49 433.67,1820.33 485.227,1789.09C484.525,1788.13 483.838,1787.17 483.164,1786.2C447.585,1734.56 425.146,1678.08 417.076,1619.85C415.937,1611.75 408.148,1577.36 431.453,1586.02C450.899,1593.25 469.936,1604.5 489.139,1612.48C532.294,1630.42 575.465,1649.23 620.156,1664.81C626.919,1644.88 641.326,1564.43 653.579,1555.47C662.248,1554.34 690.21,1564.43 701.656,1567.16L703.491,1567.59C709.804,1569.9 715.043,1572.66 721.765,1572.65C723.678,1570.38 723.168,1571.46 723.753,1569.55C726.306,1574.1 727.009,1574.69 733.937,1576.64C805.798,1596.92 883.55,1614.78 957.663,1628.92C1333.99,1700.16 1727.07,1698.57 2102.43,1624.3C2161.83,1612.4 2220.67,1598.87 2278.84,1583.75C2287.12,1581.55 2324,1572.37 2327.66,1568.95C2334.22,1568.62 2343.05,1566.56 2348.77,1564.09Z" style="fill:rgb(43,42,42);fill-rule:nonzero;"/>
        <path d="M1863.86,2072.05C1871.67,2067.03 1892.19,2063.43 1902.13,2063.92C1801.57,2142.03 1693.45,2214.02 1578.71,2279.27C1518.54,2313.59 1531.96,2313.32 1472.66,2279.52C1393.9,2234.8 1318.25,2186.87 1246.03,2135.92C1212.65,2112.38 1182.32,2088.87 1149.87,2064.96C1166.14,2068.71 1170.6,2063.62 1185.06,2070.42C1191.92,2067.4 1230.27,2073.04 1240.26,2073.87C1275.77,2076.64 1311.33,2079.02 1346.93,2081.02C1459.57,2087.28 1572.62,2087.72 1685.33,2082.33C1725.8,2080.22 1766.39,2076.32 1806.82,2074.16C1817.63,2073.58 1857.91,2067.54 1864.28,2069.76L1863.86,2072.05Z" style="fill:rgb(78,3,132);fill-rule:nonzero;"/>
        <path d="M1863.86,2072.05C1871.67,2067.03 1892.19,2063.43 1902.13,2063.92C1801.57,2142.03 1693.45,2214.02 1578.71,2279.27C1518.54,2313.59 1531.96,2313.32 1472.66,2279.52C1393.9,2234.8 1318.25,2186.87 1246.03,2135.92C1212.65,2112.38 1182.32,2088.87 1149.87,2064.96C1166.14,2068.71 1170.6,2063.62 1185.06,2070.42C1272.83,2134 1356.55,2194.36 1454.33,2249.43C1471.19,2258.92 1508.53,2281.57 1525.89,2288.93C1610.92,2242.96 1692.36,2193.1 1769.77,2139.61C1789.76,2126.06 1809.36,2112.16 1828.54,2097.92C1838.49,2090.58 1853.89,2078.45 1863.86,2072.05Z" style="fill:rgb(1,0,2);fill-rule:nonzero;"/>
        <path d="M2380.87,1577.88L2383.92,1578.22C2386.56,1582.64 2393.07,1614.73 2394.52,1621.22C2399.92,1645.56 2405.68,1669.86 2411.79,1694.1C2423.94,1743.4 2437.13,1792.54 2451.35,1841.5C2455.3,1855.13 2473.17,1910.55 2473.49,1921.45C2468.67,1926.33 2415.25,1940.26 2404.62,1943.26C2324.54,1966.53 2242.79,1986.19 2159.79,2002.13C1769.53,2080.14 1361.03,2085.15 967.804,2016.75C882.424,2001.67 797.896,1983.87 714.777,1962.47C697.765,1958.09 680.726,1952.93 663.734,1948.82C649.319,1945.05 586.326,1927.34 576.543,1922.65C575.311,1919.25 576.075,1915.14 577.14,1911.68C611.025,1801.44 633.971,1689.26 664.82,1578.6C705.969,1592.85 751.689,1603.21 794.368,1614.68C850.264,1629.7 907.722,1641.08 965.162,1651.91C1326.33,1718.89 1702.61,1719.64 2064.22,1654.08C2181.49,1632.33 2269.68,1608.76 2380.87,1577.88Z" style="fill:rgb(254,214,0);fill-rule:nonzero;"/>
        <g>
            <path d="M1179.7,1771.64C1210.27,1775.61 1245.36,1777.56 1276.41,1780.82C1294.75,1782.75 1312.91,1782.01 1332.15,1785.04L1333.56,1788.39C1329.65,1794.72 1322.26,1790.88 1316.78,1797.37C1314.74,1804.51 1339.26,1884.72 1342.94,1898.51C1350.01,1880.4 1381.19,1814.37 1376.8,1801.07C1373.18,1796.92 1367.54,1796.1 1361.1,1793.55C1358.94,1789.79 1359.72,1791.77 1360.54,1786.76C1365.38,1784.93 1394.91,1787.81 1403.18,1787.91C1446.97,1788.42 1490.55,1788.84 1534.33,1789.94C1534.15,1799.47 1535.36,1819.02 1531.69,1827.2L1529.36,1827.97C1521.95,1823.35 1516.43,1810.73 1507.77,1803.89C1499.3,1797.2 1484.9,1798.92 1472.04,1798.86C1471.9,1808.34 1469.78,1851.75 1473.6,1857.01C1497.73,1864.55 1497.2,1835.47 1508.23,1832.71C1512.46,1837.48 1511.6,1892.75 1507.43,1896.5C1498.95,1890 1498.25,1872.49 1480.71,1867.28C1474.56,1867.8 1477.23,1866.97 1472.33,1869.72C1468.89,1885.06 1471.4,1910.34 1472.05,1926.43C1472.52,1938.08 1506.35,1931.99 1514.65,1929.21C1521.87,1920.75 1532.53,1898.53 1540.77,1895.98C1543.92,1902.24 1542.52,1937.36 1538.25,1942.9L1534.38,1943.53L1456.35,1942.48C1445.87,1942.32 1418.23,1943.95 1412.09,1937.74C1413.67,1932.24 1426.96,1933.19 1431.02,1927.38C1435.2,1921.42 1435.98,1811.45 1432.59,1804.63C1430.25,1799.93 1421.88,1798.06 1416.36,1796.2C1413.4,1797.12 1410.48,1798.1 1407.59,1799.15C1389.82,1805.71 1381.21,1837.98 1374.6,1852.56C1361.53,1881.38 1350.75,1911.14 1337.27,1939.91L1316.3,1938.4C1308.77,1898.73 1291.45,1855.46 1281.67,1815.77C1277.8,1800.06 1274.29,1795.48 1257.15,1787.53C1249.14,1787.79 1244.41,1787.39 1238.65,1791.62C1229.19,1806.56 1230.69,1885.78 1226.15,1906.57C1223.01,1920.99 1245.39,1921.57 1244.62,1930.11C1237.1,1933.06 1177.98,1926.33 1167.73,1924.12C1165.29,1921.3 1165.81,1922.83 1166.26,1919.37C1169.93,1916.5 1177.51,1916.31 1184.85,1913.14C1191.5,1905.28 1196.52,1807.56 1196.97,1791.46C1197.25,1781.86 1179.82,1788.27 1179.7,1771.64Z" style="fill:rgb(78,3,132);fill-rule:nonzero;"/>
            <path d="M859.173,1723.55C870.241,1725.42 925.332,1734.27 931.137,1738.14C931.857,1742.02 932.369,1740.31 929.844,1743.5C923.174,1745.33 920.146,1743.94 914.27,1747.41C907.683,1755.85 891.084,1851.48 897.174,1862.02C917.774,1897.66 957.801,1879.05 962.063,1841.42C964.556,1819.41 974.848,1788.1 972.778,1764.57C972.178,1757.75 950.254,1749.59 956.465,1742.22C964.757,1741.94 999.729,1748.96 1009.63,1750.48C1029.07,1753.47 1047.61,1756.39 1067.55,1758.16C1073.55,1767.8 1081.39,1784.51 1086.7,1794.81L1125.18,1869.9C1127.97,1845.44 1137.09,1804.57 1130.77,1782.5C1123.01,1777.18 1117.62,1776.37 1114.45,1768.65C1118.58,1761.6 1148.7,1769.93 1157.93,1770.4C1164.59,1770.74 1173.42,1770.95 1173.73,1776.64C1169.28,1781.84 1162.64,1780.34 1158.45,1783.29C1143.8,1793.58 1143.96,1819.18 1142.09,1833.75L1133.94,1897.92C1132.46,1904.99 1131.86,1914.59 1131.16,1921.91C1124.97,1921.69 1118.78,1920.83 1112.65,1920.11C1093.39,1881.22 1068.27,1830.4 1046.65,1792.87C1043.22,1817.29 1033.02,1872.01 1038.99,1893.85C1044.88,1897.82 1056.15,1902.94 1055.6,1909.2C1048.83,1912.16 1001.95,1905.88 996.385,1902.62L996.445,1899.09C1004.19,1890.24 1018.45,1900.21 1023.07,1873.82C1027.24,1849.94 1029.77,1826.06 1033.05,1801.86C1035.43,1784.27 1036.01,1763.9 1008.03,1758.84C998.88,1758.76 992.411,1765.87 989.422,1771.55C972.173,1803.43 988.582,1896.44 919.807,1893.98C856.227,1891.7 852.094,1841.21 863.245,1804.25C868.725,1786.08 869.642,1765.39 873.28,1746.99C875.411,1736.21 859.12,1738.75 859.173,1723.55Z" style="fill:rgb(78,3,132);fill-rule:nonzero;"/>
            <path d="M2145.16,1809.83C2148.63,1797.93 2167.16,1748.49 2162.33,1740.99C2158.04,1738.28 2153.67,1738.28 2148.06,1737.59L2145.75,1735.61C2146.3,1731.3 2145.03,1732.82 2148.3,1730.3C2159.83,1728.29 2183.41,1723.25 2193.43,1722.74L2195.1,1723.91C2195.38,1732.37 2178.9,1743.44 2176.29,1750.96C2169.12,1771.6 2160.59,1793.02 2155.61,1814C2152.37,1827.65 2156.5,1842.56 2157.58,1856.24C2158.79,1870.23 2177.2,1869.55 2182.89,1876.88C2181.67,1879.24 2182.15,1879.67 2177.43,1880.79C2166.39,1883.4 2115.13,1893.33 2106.2,1892.99L2104.76,1891.59C2107.25,1886.64 2121.7,1876.86 2122.03,1875.94C2131.02,1850.3 2080.57,1767.27 2053.09,1759.29L2051.13,1760.2C2049.44,1770.02 2056.69,1785.95 2051.57,1791.47C2027.68,1789.47 2049.42,1759.28 2002.35,1763.85C2003.81,1778.7 2017.26,1885.78 2022.45,1891.39C2033.78,1897.97 2039.06,1891.81 2041.84,1901.5C2038.18,1906.21 1971.74,1915.14 1964.29,1912.23C1963.15,1908.51 1962.94,1910.33 1965.57,1906.66C1971.26,1904.14 1981.23,1901.06 1981.05,1895.44C1979.84,1855.9 1969.28,1808.27 1965.37,1769.42C1957.72,1770.64 1947.11,1771.25 1943.01,1776.35C1936.95,1783.9 1932.7,1805.16 1924.45,1809.04C1920.95,1805.83 1919.98,1795.91 1919.43,1791.41C1916.17,1785.73 1916.8,1780.77 1912.72,1777.95C1908.23,1777.89 1905.46,1778.15 1901.06,1778.52C1908.18,1776.28 1907.98,1776.59 1911.31,1772.08L1910.27,1769.59C1904.18,1766.97 1905.76,1767.85 1897.45,1768.42C1904.71,1765.99 1919.15,1764.45 1927.12,1764.76C1989.01,1756.69 2051.6,1748.56 2112.52,1736.78C2115.28,1736.25 2117.33,1736.48 2120.03,1736.84C2122.53,1740.19 2122.07,1738.45 2121.55,1742.24C2115.96,1746.34 2105.55,1747.63 2106.88,1752.12C2111.17,1766.51 2135.71,1798.08 2145.16,1809.83Z" style="fill:rgb(78,3,132);fill-rule:nonzero;"/>
            <path d="M1897.45,1768.42C1904.71,1765.99 1919.15,1764.45 1927.12,1764.76C1918.36,1766.7 1915.4,1766.76 1917.01,1775.88C1918.03,1781.66 1919.48,1785.42 1919.43,1791.41C1916.17,1785.73 1916.8,1780.77 1912.72,1777.95C1908.23,1777.89 1905.46,1778.15 1901.06,1778.52C1908.18,1776.28 1907.98,1776.59 1911.31,1772.08L1910.27,1769.59C1904.18,1766.97 1905.76,1767.85 1897.45,1768.42Z" style="fill:rgb(232,187,15);fill-rule:nonzero;"/>
            <path d="M1589.15,1788.79C1636.73,1787.24 1695.47,1780.82 1680.23,1839.94C1677.1,1852.08 1666.07,1859.2 1652.78,1864.95C1664.7,1882.05 1681.34,1911.72 1700.36,1925.01C1705.83,1928.84 1716.13,1930.25 1714.42,1937.1C1704.96,1939.95 1671.13,1940.3 1659.43,1940.64C1651.25,1926.3 1642.81,1912.05 1634.12,1897.89C1630.86,1891.81 1623.47,1877.16 1616.9,1873.73L1614.88,1874.93C1611.55,1885.98 1614.59,1910.23 1615.89,1922.26C1616.63,1929.09 1626.34,1929.61 1631.7,1934.62C1632.28,1938.99 1633.11,1937.24 1630.64,1940.4C1621.54,1942.09 1564.67,1945.33 1559.17,1941.23C1561.82,1934.86 1578.84,1928.12 1578.28,1920.87C1575.46,1883.91 1576.32,1846.69 1573.83,1809.74C1573.31,1802.04 1555.7,1801.98 1554.57,1793L1556.6,1791.25C1565.15,1789.33 1579.76,1789.16 1589.15,1788.79Z" style="fill:rgb(78,3,132);fill-rule:nonzero;"/>
            <path d="M1611.17,1798.4C1625.48,1798.36 1627.64,1798.79 1637.27,1807.02C1642.68,1824.11 1644.67,1841.18 1634.22,1857.44C1628.69,1860.63 1620.31,1865.44 1614.14,1860.96C1611.6,1848.78 1611.6,1812.4 1611.17,1798.4Z" style="fill:rgb(254,214,0);fill-rule:nonzero;"/>
            <path d="M1754.95,1777.17C1773.9,1776.28 1779.62,1778.32 1797.89,1782.35C1800.43,1782.91 1803.45,1778.57 1809.64,1778.53C1816.05,1785.03 1818.45,1821.74 1813.53,1830.18L1810.63,1830.48C1799.16,1819.58 1787.59,1764.37 1751.35,1795.74C1737,1836.13 1777.33,1832.4 1808.34,1848.54C1831.41,1860.55 1832.22,1884.28 1826.93,1903.49C1820.79,1925.74 1800.85,1935.88 1772.58,1938.26C1756.55,1937.52 1750.29,1934.95 1735.93,1929.94L1735.19,1930.7C1731.55,1934.3 1729.01,1938.91 1722.5,1936.35C1718.4,1929.85 1715.8,1890.38 1717.64,1882.36L1719.72,1881.62C1733.67,1889.91 1743.77,1933.74 1776.98,1926.76C1782.6,1925.58 1791.74,1919.15 1793.46,1914.65C1812.31,1865.2 1737.77,1882.92 1721.49,1848.16C1707.96,1818.73 1714.37,1789.48 1754.95,1777.17Z" style="fill:rgb(78,3,132);fill-rule:nonzero;"/>
            <path d="M1897.45,1768.42C1905.76,1767.85 1904.18,1766.97 1910.27,1769.59L1911.31,1772.08C1907.98,1776.59 1908.18,1776.28 1901.06,1778.52C1898.03,1780.17 1895.8,1780.88 1894.42,1783.66C1891.73,1789.1 1903.04,1899.97 1907.22,1905.36C1909.54,1908.35 1912.37,1909.51 1916.59,1910.2C1919.67,1910.7 1922.1,1911.29 1925,1912.23C1927.76,1915.63 1927.22,1913.82 1926.59,1917.84C1921.62,1921.28 1854.58,1928.53 1849.06,1925.52C1851.27,1919.37 1869.33,1912.34 1868.04,1903.93C1862.52,1867.88 1861.15,1831.19 1855.63,1795.29C1854.38,1787.16 1836.21,1783.74 1833.8,1777.69L1835.39,1775.59C1849.75,1772.57 1881.52,1769.9 1897.45,1768.42Z" style="fill:rgb(78,3,132);fill-rule:nonzero;"/>
        </g>
        <path d="M2609.15,1613.88L2610.7,1614.26C2612.14,1617.75 2609.69,1625.5 2609.03,1629.4C2599.69,1684.54 2574.96,1736.2 2541.45,1785.04C2539.38,1788.06 2538.97,1795.48 2542.08,1798.24C2583.12,1834.58 2666.81,1852.9 2724.16,1866.79C2655.1,1916.45 2590.43,1952.01 2506.6,1984.2C2473.91,1994.92 2448.26,2003.46 2414.36,2011.65C2440.94,1989.93 2468.37,1968 2491.55,1944.06C2497.37,1937.01 2500.68,1934.34 2498.41,1925.98C2489.93,1894.78 2479.85,1863.75 2470.91,1832.64C2457,1784.16 2444.07,1735.51 2432.15,1686.71C2472.64,1673.03 2516.39,1654.1 2555.13,1637.61C2573.19,1629.92 2590.76,1621.12 2609.15,1613.88Z" style="fill:rgb(254,214,0);fill-rule:nonzero;"/>
        <path d="M438.09,1612.91C446.6,1616.13 455.791,1620.35 463.908,1624.18C513.147,1647.37 564.163,1666.32 615.417,1686.41C601.082,1735.69 589.489,1788.67 575.745,1838.67C570.689,1857.08 565.422,1875.45 559.944,1893.79C556.408,1905.81 551.218,1918.77 550.818,1931.11C550.3,1947.04 618.265,1997.66 635.813,2012.36C603.684,2003.43 578.046,1996.39 546.837,1985.32C460.835,1954.87 393.758,1914.78 324.113,1866.09C381.617,1852.23 456.093,1837.19 502.306,1803.28C505.469,1801 511.644,1792.93 509.552,1789.6C474.17,1733.27 443.095,1677.15 438.09,1612.91Z" style="fill:rgb(254,214,0);fill-rule:nonzero;"/>
        <path d="M601.551,1954.7C609.01,1955.02 661.928,1971.04 673.015,1974.26C672.71,1984.67 671.153,1997.77 670.229,2008.38L669.178,2009.38L667.025,2009.22C650.877,1997.18 613.089,1968.3 601.551,1954.7Z" style="fill:rgb(254,214,0);fill-rule:nonzero;"/>
        <path d="M2442.26,1955.15L2445.77,1955.71C2443.01,1962.87 2392.14,2001.59 2381.36,2010.06C2377.31,2007.98 2376.65,1980.04 2376.14,1974.18C2398.34,1968.19 2420.39,1961.84 2442.26,1955.15Z" style="fill:rgb(254,214,0);fill-rule:nonzero;"/>
        <g>
            <g>
                <path d="M1682.25,765.062C1693.99,772.609 1699.83,789.419 1702.28,800.774C1714.38,856.766 1688.86,907.559 1624.07,936.219C1612.97,941.128 1577.05,953.574 1570.86,960.308C1571.51,964.77 1570.36,962.948 1574.12,966.079C1584.98,969.306 1612.92,964.801 1624.26,961.847C1676.62,948.216 1711.05,923.127 1736.52,886.273C1759.6,942.129 1691.63,997.697 1622.67,1001.07C1601.15,1002.12 1573.5,1000.32 1554.21,1007.2C1551.5,1008.18 1551.98,1010.89 1552.15,1012.7C1556.07,1017.94 1563.12,1023.24 1571.3,1024.06C1608.94,1027.84 1648.23,1029.42 1683.73,1017.27C1695.67,1013.19 1702.08,1007.34 1711.36,1003.97L1712.89,1005.3C1707.74,1042.43 1655.6,1071.75 1609.79,1066.17C1589.28,1063.67 1518.45,1051.02 1503.74,1058.32C1496.52,1079 1552.08,1096.36 1573.25,1096.48C1580.15,1096.51 1599.75,1096.67 1604.22,1098.91C1603.97,1110.63 1586.1,1113.04 1576.08,1116.63C1539.73,1129.64 1508.3,1109.86 1475.7,1099.93C1455.46,1093.77 1436.62,1090.08 1415.01,1089.14C1417.92,1093.71 1421.08,1103.22 1423.67,1106.58C1452.54,1144.06 1531.92,1162.01 1584.14,1153.79C1624.52,1147.43 1664.02,1132.53 1691.32,1109.66C1700.25,1102.17 1707.82,1089.51 1715.16,1081.25L1715.96,1080.37C1719.34,1117.96 1708.75,1160.4 1671.1,1186.65C1649.95,1201.78 1616.7,1208.63 1588.45,1204.92C1580.19,1203.83 1559.14,1197.82 1554.42,1202.63C1556.11,1211.2 1578.01,1226.12 1588.23,1229.58C1613.08,1237.98 1647.78,1236.03 1673.12,1229.83C1701.55,1222.88 1714.73,1207.06 1727.33,1187.71C1730.93,1204.47 1729.43,1220.24 1720.5,1235.75C1701.1,1269.42 1664.34,1298.38 1614.32,1298.65C1566.46,1298.9 1544.8,1273.73 1509.78,1253.82C1495.07,1245.45 1478.12,1239.64 1460.95,1235.22C1419.53,1222.61 1382.9,1230.69 1342.12,1219.02C1313.62,1210.86 1297.71,1197.54 1281.88,1178.17C1246.55,1134.93 1245.63,1090.69 1252.35,1041.67C1251.62,1033.35 1260.19,1020.82 1258.15,1012.97C1250.06,981.868 1224.73,958.143 1180.68,971.013C1176.51,972.23 1173.58,974.947 1169.12,972.993C1168.94,971.84 1168.75,971.224 1169.07,969.97C1173.72,951.684 1192.7,947.983 1202.47,939.552C1219.48,924.874 1218.59,901.1 1245.2,888.532C1259.21,881.917 1272.94,877.888 1289.47,881.159C1344.12,891.452 1340.46,940.676 1365.08,970.593C1380.36,989.15 1402.21,990.362 1426.03,982.376C1448.91,974.708 1465.15,962.615 1485.73,953.496C1516.66,939.792 1549.27,928.929 1577.53,911.559C1625.11,883.742 1663.62,842.639 1678.18,797.413C1680.84,789.157 1680.44,774.794 1682.25,765.062Z" style="fill:rgb(254,214,0);fill-rule:nonzero;"/>
                <path d="M1535.72,750.842C1545.46,754.2 1554.79,767.496 1558.04,775.275C1570.28,805.668 1561.77,839.88 1539.46,866.245C1533.48,873.322 1514.9,884.361 1520.89,892.415C1521.9,892.729 1523.47,893.295 1524.54,893.189C1555.11,890.181 1578.59,863.493 1589.2,843.129C1596.41,829.287 1597.96,811.037 1600.01,796.393C1611.89,811.772 1618.89,837.361 1608.59,853.036C1591.33,879.318 1518.26,909.61 1485.45,920.427C1455.38,932.793 1434.57,950.156 1403.55,957.169C1391.4,915.762 1396.98,859.294 1445.97,833.963C1454.1,829.758 1458.22,825.628 1464.09,819.79C1461.06,833.517 1434.11,892.096 1453.62,897.898C1457.78,896.662 1461.12,894.026 1463.93,891.315C1512.65,844.292 1539.54,811.433 1535.72,750.842Z" style="fill:rgb(254,214,0);fill-rule:nonzero;"/>
                <path d="M1427.62,1254.81C1497.88,1271.86 1524.19,1291.5 1538.48,1346.26C1541.38,1357.38 1552.36,1375.43 1560.21,1385C1568.03,1394.52 1587.52,1402.05 1598.17,1409.33L1598.18,1412.09C1526.2,1418.03 1487.83,1386.13 1474.24,1333.05C1468.82,1311.87 1465.68,1292.5 1447.07,1275.27C1442.64,1271.17 1428.7,1258.87 1427.62,1254.81Z" style="fill:rgb(254,214,0);fill-rule:nonzero;"/>
            </g>
            <path d="M1563.08,1319.42C1569.02,1319.72 1570.51,1320.5 1576.15,1322.12C1621.95,1335.24 1635.25,1338.5 1679.93,1322.48C1675.49,1332.79 1673.81,1337.49 1664.49,1346C1652.76,1354.37 1641.18,1361.51 1624.62,1363.25C1610.5,1364.72 1596.24,1361.53 1585.31,1354.44C1573.04,1346.49 1564.4,1331.73 1563.08,1319.42Z" style="fill:rgb(254,214,0);fill-rule:nonzero;"/>
            <path d="M1488.92,785.086C1505.21,793.856 1500.96,815.724 1490.56,827.025C1487.1,827.596 1488.49,827.51 1484.83,826.815C1477.92,819.39 1483.59,792.611 1488.92,785.086Z" style="fill:rgb(254,214,0);fill-rule:nonzero;"/>
            <path d="M1743.07,826.339C1758.88,831.934 1751.04,857.331 1738.98,866.309C1732.76,864.399 1735.12,865.891 1731.31,862.006C1728.81,852.35 1737.82,835.332 1743.07,826.339Z" style="fill:rgb(254,214,0);fill-rule:nonzero;"/>
        </g>
        <g>
            <path d="M1200.17,668.319L1204.32,670.782L1209.71,670.128C1207.12,674.117 1206.72,674.08 1207.11,678.684L1209.11,679.514L1212.42,677.282C1219.82,679.295 1219.12,679.831 1226.42,678.279L1224.91,681.727C1227.63,683.76 1230.06,685.903 1232.49,688.151C1222.69,684.443 1219.82,682.506 1209.31,684.625C1196.86,692.688 1158.18,728.975 1152.04,739.915C1153.55,742.504 1152.46,741.492 1155.14,743.059L1154.08,744.319C1147.21,752.398 1134.85,759.508 1134.77,768.428C1138.22,774.517 1141.06,774.282 1149.16,776.126C1142.38,775.862 1126.28,774.578 1122.63,777.983C1104.04,795.293 1082.59,839.559 1072.6,859.648L1076.97,861.322C1071.61,871.61 1066.02,880.462 1065.7,891.636C1068.81,893.835 1069.51,893.192 1074.61,893.716C1065.91,896.496 1062.25,897.773 1055.58,903.05C1049.62,925.279 1042.08,948.209 1038.83,970.753C1039.54,975.531 1037.55,982.234 1039.95,985.298C1043.32,983.895 1041.94,984.737 1044.25,982.917C1042.63,987.628 1040.89,992.446 1039.39,997.168C1039.37,1003.03 1038.65,1019.42 1040.88,1024.13L1042.22,1024.97C1038.71,1029.34 1035.67,1032.53 1031.66,1036.64C1030.79,1059.39 1030.83,1090.52 1034.89,1112.91C1034.12,1120.82 1036.86,1130.54 1037.9,1138.93C1038.24,1143.44 1038.73,1146.38 1039.66,1150.84L1041.29,1148.48L1043.39,1148.72C1044.93,1151.51 1045.82,1153.78 1048.16,1156.13C1049.35,1157.2 1051.54,1159.33 1052.99,1160.2C1050.37,1165.24 1048.05,1169.59 1045.96,1174.8C1050.71,1191.8 1056.39,1208.65 1062.99,1225.28C1064.71,1229.75 1072.66,1248.49 1073.4,1251.82L1078.22,1255.55L1082.19,1255.11C1089.86,1281.78 1090.65,1275.43 1101.87,1295.39L1103.61,1298.56C1103.04,1317.39 1141.87,1359.22 1156.06,1376.58L1160.14,1373.31C1154.51,1363.63 1150.98,1353.28 1149.71,1342.7C1147.63,1326.05 1158.39,1265.8 1168.65,1256.23C1172.08,1257.72 1172.8,1260.54 1174.94,1263.95C1182.23,1268.8 1191.31,1305.53 1193.83,1313.78C1203.73,1346.19 1189.25,1378.32 1191.51,1409.49C1218.05,1433.53 1246.73,1452.65 1279.4,1471.48C1270.89,1461.72 1246.86,1439.06 1249.64,1426.45C1252.3,1428.71 1251.94,1428.93 1252.9,1431.57C1258.57,1447.09 1277.17,1474.78 1300.42,1476.54C1302.43,1478.46 1304.42,1480.13 1306,1482.26L1307.32,1481.17C1304.44,1468.36 1303.58,1460.8 1304.36,1447.84C1309.34,1463.72 1304.82,1469.78 1313.06,1487.99C1324.67,1493.66 1388.11,1516.28 1398.86,1515.75C1396.15,1509.25 1373.82,1498.56 1369.99,1487.73C1373.33,1489.45 1380.06,1496.23 1382.69,1498.89C1397.52,1513.95 1413.98,1518.41 1437.36,1520.73L1439.53,1519.47L1446.4,1530.42C1479.61,1541.63 1495.9,1552.82 1522.12,1571.59C1529.7,1566.36 1539.28,1559.38 1547.04,1554.63C1553.92,1546.48 1584.48,1533.9 1596.64,1530.58C1610.81,1513.1 1607.88,1495.27 1620.74,1483.01C1644.66,1450.53 1662.88,1428.29 1706.12,1408.42C1695.85,1442.17 1689.45,1482.06 1654.96,1506.18L1654.36,1514.16C1676.37,1509.03 1710.9,1497.01 1730.58,1488.47C1740.93,1468.57 1735.52,1444.74 1743.62,1434.77C1753.34,1397.97 1770.44,1374.64 1799.68,1345.65C1801.64,1379.55 1804.55,1427.66 1778.04,1456.57C1780.13,1457.33 1784.54,1458.81 1786.33,1459.64C1806.83,1447.99 1836.43,1425.37 1852.52,1411.05C1855.97,1409.15 1852.94,1408.37 1857.22,1403.68L1860.16,1405.47C1870.97,1396.6 1880.34,1385.82 1889.32,1375.77C1907.85,1350.02 1923.79,1334.99 1941.67,1305.44C1940.81,1296.87 1938.36,1291.44 1935.03,1283.45C1938.8,1286.36 1939.68,1287.28 1942.27,1290.9L1944.81,1290.79C1953.58,1280.94 1951.46,1280.12 1957.43,1271.2C1958.08,1271.56 1960.14,1272.79 1960.78,1272.97C1964.2,1266.24 1967.39,1259.43 1970.33,1252.56C1982.19,1225.34 1990.94,1201.78 1998.28,1173.6L1993.58,1163.35L1995.06,1162.22C2004.98,1130.18 2003.89,1135.51 1997.93,1102.12C2004.29,1109.84 2001.94,1119.33 2006.3,1127.4C2007.4,1120.92 2008.39,1109.25 2010.92,1103.74C2012.75,1082.02 2015.08,1058.33 2012.78,1036.69C2007.5,1031.01 2004.06,1026.48 1996.78,1022.36C1999.79,1022.98 1999.67,1022.95 2002.65,1023.23C2007.74,1017.08 2003.97,1006.14 2004.5,997.354L2004.59,996.071L2001.6,985.621L2005.05,989.049C2007.97,988.564 2006.91,989.008 2008.46,988.18C2006.66,969.149 1995.17,917.742 1986.51,900.442C1981.62,898.069 1976.47,896.026 1971.38,893.92C1975.67,893.285 1975.53,893.504 1978.71,891.243C1977.36,876.177 1971.86,868.846 1962.47,855.825L1967.43,857.515L1969.76,856.275C1959.73,835.269 1940.63,797.037 1922.67,778.889C1917.88,774.059 1901.91,775.861 1893.32,776.206C1901.57,774.279 1905.86,774.362 1909.33,768.089C1908.69,763.116 1904.22,758.397 1900.8,753.906L1902.35,751.68C1901.97,748.442 1899.15,746.465 1896.41,743.811C1887.49,729.855 1849.05,695.687 1834.65,684.472C1827.25,684.372 1824.19,684.061 1817,685.498C1819.91,681.532 1819.37,683.545 1819.36,679.379C1825.79,679.761 1825.95,678.913 1830.65,676.512C1833.19,678.592 1833.15,678.49 1836.42,679.873C1839.01,677.37 1837.99,677.313 1837.68,673.043C1838.82,672.703 1842.78,670.02 1844,669.246C1844.5,677.957 1845.76,681.738 1848.36,690.307C1870.27,709.348 1890.31,729.646 1908.3,751.027C1913.56,757.208 1928.67,778.271 1932.99,781.762L1935.02,781.117C1936.15,777.678 1936.36,777.193 1936.6,773.682L1942.74,776.355L1941.35,795.487C1961.33,827.334 1978.65,859.234 1990.51,893.501C1991.97,897.721 1994.14,904.908 1996.61,908.651L1998.84,908.117C2001.35,903.767 2001.26,903.201 2001.94,898.355C2004.55,901.78 2004.74,902.662 2008.4,905.402C2004.36,912.088 2003.29,916.781 2000.01,923.204C2012.48,959.811 2017.41,1006.83 2020.32,1044.28L2022.19,1045.11C2027.6,1041.19 2027.89,1036.87 2027.65,1031.43C2030.41,1034.4 2030.04,1036.48 2030.02,1040.51C2035,1041.98 2036.78,1041.31 2042.47,1041C2029.26,1044.53 2027.49,1049.9 2019.86,1059.64C2019.88,1082.8 2018.14,1105.94 2014.66,1128.94C2013.22,1138.27 2003.37,1179.46 2004.01,1184.27L2006.48,1184.96C2010.87,1182.55 2010.83,1181.84 2013.25,1178.14L2014.63,1182.6C2021.42,1185.25 2029.06,1185.42 2036.78,1186.11C2029.36,1188.04 2023.76,1187.37 2015.9,1187.14L1998.68,1197.99C1992.13,1225.21 1978.28,1254.7 1965.75,1280.66C1960.6,1291.32 1948.81,1307.39 1945.18,1317.63C1948.23,1319.87 1946.38,1319.03 1951.67,1319.14C1953.66,1322.7 1954.85,1322.36 1956.85,1324.8C1950.52,1325.93 1944.24,1326.99 1937.99,1328.38C1930.41,1336.85 1923.31,1346.94 1916.79,1356.02C1899.29,1380.39 1876.6,1400.88 1854.16,1422.49C1855.32,1425.8 1854.25,1424.29 1858.66,1426.56L1858.81,1431.59C1836.14,1431.94 1837.21,1436.43 1820.79,1448.33C1793.26,1468.29 1762.94,1487.35 1729.34,1500.83C1728.45,1501.19 1727.84,1502.32 1727.41,1502.99C1729.83,1505.97 1730.58,1505.41 1735.64,1507.1C1734.05,1509.69 1733.43,1510.61 1732.4,1513.34L1712.37,1507.3C1678.45,1523.32 1610.46,1533.28 1592.16,1545.4C1586.04,1547.43 1588.45,1545.87 1584.86,1550.43C1573.68,1548.58 1540.3,1573.5 1531.88,1580.23C1542.73,1590.04 1574.56,1619.33 1563.38,1633.2C1561.46,1633.36 1558.84,1633.49 1557.7,1631.8C1546.18,1614.87 1539.1,1602.73 1522.42,1588.08C1511.57,1597.03 1505.17,1604.33 1497.84,1615.16C1494.21,1620.53 1490.42,1630.87 1484.1,1632.43C1478.7,1631.25 1480.52,1632.47 1477.99,1629.1C1477.58,1614 1499.86,1591.09 1512.38,1580.07C1496.44,1567.95 1482.22,1558.39 1463.07,1549.26C1459.46,1550.52 1447.43,1554.48 1444.7,1555.84C1444.8,1553.02 1443.49,1551.74 1441.75,1549.07C1446.24,1547.89 1447.12,1548.02 1450.18,1545.2C1447.51,1539.41 1351.85,1516.55 1332.19,1507.43C1326.9,1509.05 1321.63,1510.17 1316.19,1511.41C1312.45,1508.14 1312.53,1510.99 1308.94,1507.02C1313.25,1506.13 1315.14,1505.62 1316.96,1502.66C1314.72,1499.45 1301.87,1495.69 1296.61,1493C1283.06,1486.08 1270.11,1478.89 1257.31,1471.15C1247.66,1465.43 1238.37,1459.33 1229.49,1452.9C1220.84,1446.52 1211.68,1438.99 1202.34,1433.29C1198.96,1431.22 1189.67,1431.74 1184.89,1431.77L1185.68,1426.89C1190.27,1423.95 1189.41,1425.68 1189.96,1422.06C1171.58,1405.85 1154.69,1388.65 1139.41,1370.6C1128.52,1357.91 1117.99,1341.94 1106.58,1329.83C1103.58,1326.66 1090.17,1325.13 1084.29,1325.23C1088.98,1317.35 1088.96,1323.5 1088.79,1314.26C1093.13,1318.6 1090.44,1317.35 1096.76,1318.61L1096.61,1319.64L1097.76,1319.09C1098.26,1313.06 1080.76,1284.93 1076.64,1276.54C1063.91,1250.82 1053.34,1224.48 1045.01,1197.69C1035.05,1190.81 1031.97,1186.97 1018.95,1186.72L1021.11,1184.78C1031.91,1181.92 1029.46,1181.99 1030.02,1172.96C1031.25,1177.5 1032.47,1182.85 1038.17,1184.99C1042.5,1181.11 1037.99,1171.1 1036.53,1165.15C1027.87,1129.88 1025.26,1094.59 1024.29,1058.79C1016.09,1050.13 1016,1044.67 1003.01,1041.32C1007.98,1041.41 1007.47,1041.72 1012.12,1040.73C1015.3,1035.76 1014.07,1025.58 1018.07,1015.18C1018.16,1025.04 1014.66,1037.32 1021.44,1044.44L1023.3,1044.13C1025.58,1038.99 1025.6,1033.37 1025.77,1027.99C1026.83,994.448 1034.28,961.991 1042.23,929.126C1044.21,920.968 1040.58,910.191 1033.93,903.555C1039.29,902.653 1038.97,902.835 1042.84,899.841C1042.96,903.67 1043.8,906.8 1047.08,909.482C1048.38,908.105 1060.75,876.042 1062.44,871.822C1073.26,844.745 1086.68,820.93 1103.2,795.7C1102.63,788.588 1102.33,778.549 1099.64,772.045L1104.61,773.793L1109.11,772.164C1107.77,775.522 1107.59,778.92 1110.46,781.798L1113.01,780.853C1129.44,757.919 1148.01,735.946 1168.56,715.11C1189.67,693.432 1198.22,698.093 1200.17,668.319Z" style="fill:rgb(238,231,243);fill-rule:nonzero;"/>
            <path d="M1160.14,1373.31C1154.51,1363.63 1150.98,1353.28 1149.71,1342.7C1147.63,1326.05 1158.39,1265.8 1168.65,1256.23C1172.08,1257.72 1172.8,1260.54 1174.94,1263.95C1182.23,1268.8 1191.31,1305.53 1193.83,1313.78C1203.73,1346.19 1189.25,1378.32 1191.51,1409.49C1218.05,1433.53 1246.73,1452.65 1279.4,1471.48C1270.89,1461.72 1246.86,1439.06 1249.64,1426.45C1252.3,1428.71 1251.94,1428.93 1252.9,1431.57C1258.57,1447.09 1277.17,1474.78 1300.42,1476.54C1296.55,1477.26 1294.84,1477.32 1291.36,1478.77C1276.06,1473.3 1251.49,1457.28 1238.35,1448.19C1220.22,1435.66 1193.15,1419.52 1187.43,1401.09L1185.35,1401.35L1184.43,1397.79C1170.62,1388.45 1169.43,1383.79 1160.14,1373.31Z" style="fill:rgb(254,254,254);fill-rule:nonzero;"/>
            <path d="M1174.94,1263.95C1182.23,1268.8 1191.31,1305.53 1193.83,1313.78C1203.73,1346.19 1189.25,1378.32 1191.51,1409.49C1218.05,1433.53 1246.73,1452.65 1279.4,1471.48C1270.89,1461.72 1246.86,1439.06 1249.64,1426.45C1252.3,1428.71 1251.94,1428.93 1252.9,1431.57C1258.57,1447.09 1277.17,1474.78 1300.42,1476.54C1296.55,1477.26 1294.84,1477.32 1291.36,1478.77C1276.06,1473.3 1251.49,1457.28 1238.35,1448.19C1220.22,1435.66 1193.15,1419.52 1187.43,1401.09C1191.59,1375.44 1198.64,1352.39 1193.48,1326.05C1190.5,1310.85 1189.33,1296.79 1182.01,1282.24C1179.62,1277.49 1175.39,1268.75 1174.94,1263.95Z" style="fill:rgb(171,136,196);fill-rule:nonzero;"/>
            <path d="M1620.74,1483.01C1644.66,1450.53 1662.88,1428.29 1706.12,1408.42C1695.85,1442.17 1689.45,1482.06 1654.96,1506.18L1654.36,1514.16C1646.75,1516.13 1641.89,1518.16 1634.9,1516.33C1626.65,1517.84 1613.87,1520.91 1606.42,1521.85C1605.56,1517.52 1617.99,1490.46 1620.07,1484.86L1620.74,1483.01Z" style="fill:rgb(254,254,254);fill-rule:nonzero;"/>
            <path d="M1743.62,1434.77C1753.34,1397.97 1770.44,1374.64 1799.68,1345.65C1801.64,1379.55 1804.55,1427.66 1778.04,1456.57L1763.96,1468.74C1755.97,1473.26 1741.34,1477.92 1738.31,1480.64L1737.25,1479.93C1738.54,1476.31 1743.91,1438.52 1743.62,1434.77Z" style="fill:rgb(254,254,254);fill-rule:nonzero;"/>
            <path d="M1304.36,1447.84C1309.34,1463.72 1304.82,1469.78 1313.06,1487.99C1324.67,1493.66 1388.11,1516.28 1398.86,1515.75C1396.15,1509.25 1373.82,1498.56 1369.99,1487.73C1373.33,1489.45 1380.06,1496.23 1382.69,1498.89C1397.52,1513.95 1413.98,1518.41 1437.36,1520.73C1438.17,1524.24 1439.32,1525.24 1437.6,1527.64C1436.26,1527.24 1435,1527.03 1434.03,1526.38C1430.21,1525.1 1427.01,1524.38 1423.07,1523.4C1406.15,1519.17 1389.84,1516.81 1371.96,1511.1C1353.69,1505.27 1328.21,1498.74 1312.59,1488.75C1311.34,1487.96 1308.12,1482.53 1307.32,1481.17C1304.44,1468.36 1303.58,1460.8 1304.36,1447.84Z" style="fill:rgb(171,136,196);fill-rule:nonzero;"/>
            <path d="M1133.48,1481.23C1138.62,1479.87 1143.8,1478.64 1149.03,1477.51C1215,1463.83 1256.43,1483.1 1308.94,1507.02C1312.53,1510.99 1312.45,1508.14 1316.19,1511.41C1307.57,1516.03 1303.34,1526.89 1292.51,1532.67C1278.41,1540.19 1259.61,1539.55 1243.53,1537.23C1198.71,1530.7 1159.1,1510.54 1133.48,1481.23Z" style="fill:rgb(254,254,254);fill-rule:nonzero;"/>
            <path d="M1735.64,1507.1C1791.97,1479.6 1836.43,1463.55 1904.38,1479.58L1911.25,1481.16C1882.37,1511.95 1845.43,1531.17 1796.95,1537.79C1763.17,1542.4 1748.24,1534.92 1732.4,1513.34C1733.43,1510.61 1734.05,1509.69 1735.64,1507.1Z" style="fill:rgb(254,254,254);fill-rule:nonzero;"/>
            <path d="M1024.57,1348.41C1028.32,1348.47 1032.06,1348.61 1035.81,1348.81C1076.8,1351.22 1121.62,1371.21 1149.26,1394.05C1161.62,1404.26 1173.76,1416.16 1185.68,1426.89L1184.89,1431.77C1178.69,1434.74 1171.97,1441.96 1164.25,1443.62C1149.27,1446.82 1132.5,1442.75 1119.41,1437.21C1077.34,1419.4 1038.43,1384.11 1024.57,1348.41Z" style="fill:rgb(254,254,254);fill-rule:nonzero;"/>
            <path d="M1858.66,1426.56C1870.88,1416.38 1881.33,1405.37 1893.71,1395.29C1927.18,1368.06 1971.4,1349.17 2020.48,1348.42C2001.13,1387.67 1968.16,1420.33 1918.41,1439.8C1907.67,1444.01 1889.51,1446.6 1878.03,1443.04C1871.21,1440.92 1865.63,1434.45 1858.81,1431.59L1858.66,1426.56Z" style="fill:rgb(254,254,254);fill-rule:nonzero;"/>
            <path d="M1875.96,608.439C1918.29,630.99 1946.44,679.374 1956.6,717.525C1959.77,729.441 1961.7,750.203 1954.49,761.36C1951.54,765.919 1945.01,771.844 1942.74,776.355L1936.6,773.682C1894.4,721.116 1869.93,672.357 1875.96,608.439Z" style="fill:rgb(254,254,254);fill-rule:nonzero;"/>
            <path d="M1732.37,530.336C1737.76,532.135 1744.84,534.113 1749.84,536.112C1799.55,555.977 1873.85,623.524 1844,669.246C1842.78,670.02 1838.82,672.703 1837.68,673.043C1824.72,662.599 1811,654.479 1797.54,642.6C1765.98,614.756 1735.9,567.429 1732.37,530.336Z" style="fill:rgb(254,254,254);fill-rule:nonzero;"/>
            <path d="M1951.67,1319.14C1960.12,1306.53 1966.79,1293.22 1975.33,1280.62C2000.77,1243.06 2035.03,1216.45 2083.9,1197.8C2077.45,1242.65 2049.31,1290.01 2005.39,1320.15C1990.64,1330.28 1973.8,1333.09 1956.85,1324.8C1954.85,1322.36 1953.66,1322.7 1951.67,1319.14Z" style="fill:rgb(254,254,254);fill-rule:nonzero;"/>
            <path d="M1099.64,772.045C1056.96,737.745 1115.75,644.917 1152.82,618.002C1157.47,614.625 1163.05,611.152 1168.25,608.304C1171.21,671.772 1154.39,718.945 1109.11,772.164L1104.61,773.793L1099.64,772.045Z" style="fill:rgb(254,254,254);fill-rule:nonzero;"/>
            <path d="M1200.17,668.319C1169.62,625.733 1246.5,554.341 1293.59,536.53C1299.75,534.2 1306.69,532.197 1313.14,530.386C1300.42,578.55 1280.29,617.02 1234.62,652.845C1228.42,657.711 1216.83,666.388 1209.71,670.128L1204.32,670.782L1200.17,668.319Z" style="fill:rgb(254,254,254);fill-rule:nonzero;"/>
            <path d="M1992.82,726.681C2027.35,763.279 2043.27,823.573 2036,868.558C2033.2,885.843 2025.13,894.944 2008.4,905.402C2004.74,902.662 2004.55,901.78 2001.94,898.355C1997.22,892.765 1993.62,881.894 1991.31,875.087C1976.59,831.776 1971.17,768.998 1992.82,726.681Z" style="fill:rgb(254,254,254);fill-rule:nonzero;"/>
            <path d="M2027.65,1031.43C2021.64,982.885 2026.69,938.54 2051.36,892.803C2054.91,886.221 2063.05,873.131 2068.51,867.504C2091.76,906.822 2089.15,972.743 2071.42,1013.53C2066.81,1024.14 2056.7,1037.09 2042.47,1041C2036.78,1041.31 2035,1041.98 2030.02,1040.51C2030.04,1036.48 2030.41,1034.4 2027.65,1031.43Z" style="fill:rgb(254,254,254);fill-rule:nonzero;"/>
            <path d="M1033.93,903.555C978.785,877.707 1016.58,758.144 1052.48,726.59C1071.96,781.775 1070.66,846.514 1042.84,899.841C1038.97,902.835 1039.29,902.653 1033.93,903.555Z" style="fill:rgb(254,254,254);fill-rule:nonzero;"/>
            <path d="M2013.25,1178.14C2022.13,1127.13 2045.6,1065.96 2096.81,1030.75L2099.35,1030.64C2108.79,1041.61 2100.69,1083.92 2097.28,1097.06C2090.66,1122.6 2070.52,1174.66 2036.78,1186.11C2029.06,1185.42 2021.42,1185.25 2014.63,1182.6L2013.25,1178.14Z" style="fill:rgb(254,254,254);fill-rule:nonzero;"/>
            <path d="M961.34,1198.88L963.528,1199.6C1022.11,1218.49 1068.41,1268.81 1088.79,1314.26C1088.96,1323.5 1088.98,1317.35 1084.29,1325.23C1070.49,1336.04 1047.09,1325.92 1035.53,1317.6C995.226,1288.62 965.474,1241.32 961.34,1198.88Z" style="fill:rgb(254,254,254);fill-rule:nonzero;"/>
            <path d="M943.296,1028.18C995.282,1060.3 1021.37,1123.62 1030.02,1172.96C1029.46,1181.99 1031.91,1181.92 1021.11,1184.78L1018.95,1186.72C977.207,1195.14 943.815,1099.14 943.107,1077.24C942.564,1060.44 942.272,1044.97 943.296,1028.18Z" style="fill:rgb(254,254,254);fill-rule:nonzero;"/>
            <path d="M975.745,866.722C1010.92,911.404 1021.79,963.574 1018.07,1015.18C1014.07,1025.58 1015.3,1035.76 1012.12,1040.73C1007.47,1041.72 1007.98,1041.41 1003.01,1041.32C990.764,1038.22 980.147,1027.71 975.716,1018.72C953.226,973.104 953.486,911.934 975.745,866.722Z" style="fill:rgb(254,254,254);fill-rule:nonzero;"/>
            <path d="M1592.16,1545.4C1596.15,1547.07 1599.44,1549.43 1603.49,1547.84C1655.27,1527.59 1726.34,1539.08 1771.86,1571.34C1723.15,1601.71 1627.37,1609.55 1599.85,1555.37C1595.26,1553.82 1589.46,1551.7 1584.86,1550.43C1588.45,1545.87 1586.04,1547.43 1592.16,1545.4Z" style="fill:rgb(254,254,254);fill-rule:nonzero;"/>
            <path d="M1272.28,1571.31C1305.38,1548.48 1353.37,1535.8 1397.55,1537.85C1410.11,1538.44 1432.01,1542.81 1441.75,1549.07C1443.49,1551.74 1444.8,1553.02 1444.7,1555.84C1432.24,1578.56 1410.09,1591.35 1378.39,1594.13C1340.54,1597.62 1302.44,1589.42 1272.28,1571.31Z" style="fill:rgb(254,254,254);fill-rule:nonzero;"/>
            <path d="M1593.02,585.256C1652.51,561.691 1719.17,578.549 1753.91,622.093C1756.07,626.933 1757.71,628.353 1761.79,632.462L1761.61,635.401L1756.35,637.941C1713.01,655.454 1630.73,602.524 1593.02,585.256Z" style="fill:rgb(254,254,254);fill-rule:nonzero;"/>
            <path d="M1292.17,619.794C1297,614.761 1302.31,608.889 1307.72,604.276C1343.04,574.133 1405.89,565.757 1451.41,585.321C1398.07,609.651 1353.05,646.059 1290.6,639.638C1285.78,635.334 1285.23,638.176 1282.34,632.879L1283.16,632.041L1284.51,630.63C1288.63,626.372 1288.92,626.102 1291.58,620.968L1292.17,619.794Z" style="fill:rgb(254,254,254);fill-rule:nonzero;"/>
            <path d="M1875.45,1252.93C1892.63,1294.08 1905.39,1335.97 1882.36,1376.79L1889.32,1375.77C1880.34,1385.82 1870.97,1396.6 1860.16,1405.47L1857.22,1403.68C1852.94,1408.37 1855.97,1409.15 1852.52,1411.05C1853.2,1394.62 1853.11,1397.21 1851.62,1379.89C1849.49,1373.28 1848.92,1362.33 1848.61,1355.39C1846.88,1316.01 1857.07,1288.62 1875.45,1252.93Z" style="fill:rgb(254,254,254);fill-rule:nonzero;"/>
            <path d="M1053.36,1088.09C1070.15,1065.08 1089.99,1047.61 1115.94,1030.38C1113.12,1083.8 1095.62,1119.68 1052.99,1160.2C1051.54,1159.33 1049.35,1157.2 1048.16,1156.13C1045.82,1153.78 1044.93,1151.51 1043.39,1148.72L1041.29,1148.48L1039.66,1150.84C1038.73,1146.38 1038.24,1143.44 1037.9,1138.93C1036.86,1130.54 1034.12,1120.82 1034.89,1112.91C1036.28,1115.55 1037.17,1118.22 1038.05,1120.99C1040.19,1117.48 1040.77,1116.04 1042.28,1112.43C1042.95,1107.63 1048.75,1090.9 1053.36,1088.09Z" style="fill:rgb(254,254,254);fill-rule:nonzero;"/>
            <path d="M1917.82,1148.26C1936.68,1172 1955.37,1199.91 1961.48,1227.43C1969.68,1235.57 1959.73,1253.88 1970.33,1252.56C1967.39,1259.43 1964.2,1266.24 1960.78,1272.97C1960.14,1272.79 1958.08,1271.56 1957.43,1271.2C1951.46,1280.12 1953.58,1280.94 1944.81,1290.79L1942.27,1290.9C1939.68,1287.28 1938.8,1286.36 1935.03,1283.45C1931.65,1279.92 1925.3,1266.14 1923.61,1261.65C1908.17,1220.71 1910.9,1189.28 1917.82,1148.26Z" style="fill:rgb(254,254,254);fill-rule:nonzero;"/>
            <path d="M1251.03,655.452C1255.49,658.53 1254.26,657.564 1261.31,658.297C1288.95,649.697 1327.57,669.384 1348.46,682.505C1353.7,685.798 1360.5,689.038 1364.37,693.263C1362.51,696.275 1361.09,697.893 1355.88,698.963C1314.5,707.455 1278.78,707.457 1240.07,692.345C1238.12,691.586 1233.52,689.492 1232.49,688.151C1230.06,685.903 1227.63,683.76 1224.91,681.727L1226.42,678.279C1230.69,671.488 1234.94,669.681 1241.9,664.773L1239.61,663.397C1242.1,659.765 1246.6,657.868 1251.03,655.452Z" style="fill:rgb(254,254,254);fill-rule:nonzero;"/>
            <path d="M1125.92,1149.52C1135.85,1187.78 1134.56,1226.22 1119.8,1263.81C1114.99,1276.06 1106.73,1285.34 1103.61,1298.56L1101.87,1295.39C1090.65,1275.43 1089.86,1281.78 1082.19,1255.11C1079.5,1215.55 1097.83,1182.29 1125.92,1149.52Z" style="fill:rgb(254,254,254);fill-rule:nonzero;"/>
            <path d="M1769.11,739.475C1808.21,729.494 1857.28,717.325 1890.69,743.893L1896.41,743.811C1899.15,746.465 1901.97,748.442 1902.35,751.68L1900.8,753.906C1904.22,758.397 1908.69,763.116 1909.33,768.089C1905.86,774.362 1901.57,774.279 1893.32,776.206C1891.7,776.852 1889.04,777.185 1887.21,777.241C1838.87,778.715 1803.56,763.846 1769.11,739.475Z" style="fill:rgb(254,254,254);fill-rule:nonzero;"/>
            <path d="M1339.63,1409.2C1380.33,1428.97 1411.75,1458.39 1429.24,1493.12C1433.96,1502.6 1435.44,1510.81 1439.53,1519.47L1437.36,1520.73C1413.98,1518.41 1397.52,1513.95 1382.69,1498.89C1380.06,1496.23 1373.33,1489.45 1369.99,1487.73C1354.87,1466.27 1343.23,1433.74 1339.63,1409.2Z" style="fill:rgb(254,254,254);fill-rule:nonzero;"/>
            <path d="M1927.9,1029.68C1957.79,1050.88 1984.74,1071.75 1997.93,1102.12C2003.89,1135.51 2004.98,1130.18 1995.06,1162.22L1993.58,1163.35C1987.72,1155.08 1975.02,1145.92 1968.01,1136.94C1940.02,1101.11 1932.64,1070.05 1927.9,1029.68Z" style="fill:rgb(254,254,254);fill-rule:nonzero;"/>
            <path d="M1817,685.498C1795.78,699.468 1754.86,707.305 1727.41,704.388C1717.37,703.322 1687,700.34 1680.58,694.371C1682.39,686.168 1722.49,668.291 1732.76,663.992C1756.34,654.115 1770.03,654.504 1794.7,661.13C1804.63,669.195 1809.01,665.747 1819.36,679.379C1819.37,683.545 1819.91,681.532 1817,685.498Z" style="fill:rgb(254,254,254);fill-rule:nonzero;"/>
            <path d="M1076.97,861.322C1103.35,824.919 1145.16,823.373 1193.25,819.947C1166.69,852.658 1138.23,879.1 1086.89,891.985C1083.57,892.819 1077.59,892.999 1074.61,893.716C1069.51,893.192 1068.81,893.835 1065.7,891.636C1066.02,880.462 1071.61,871.61 1076.97,861.322Z" style="fill:rgb(254,254,254);fill-rule:nonzero;"/>
            <path d="M1971.38,893.92C1965.68,892.76 1959.7,892.829 1953.7,891.185C1917.38,881.235 1885.14,860.164 1863.99,835.332C1860.78,831.562 1854.72,826.077 1854.26,821.883C1861.25,818.341 1872.09,821.034 1880.04,821.8C1908.52,824.544 1949.17,833.885 1962.47,855.825C1971.86,868.846 1977.36,876.177 1978.71,891.243C1975.53,893.504 1975.67,893.285 1971.38,893.92Z" style="fill:rgb(254,254,254);fill-rule:nonzero;"/>
            <path d="M1155.14,743.059C1185.69,717.388 1239.17,729.934 1275.45,739.619C1239.27,764.187 1206.53,778.848 1156.08,777.153C1154.18,777.09 1150.92,776.623 1149.16,776.126C1141.06,774.282 1138.22,774.517 1134.77,768.428C1134.85,759.508 1147.21,752.398 1154.08,744.319L1155.14,743.059Z" style="fill:rgb(254,254,254);fill-rule:nonzero;"/>
            <path d="M1044.25,982.917C1059.85,945.235 1100.29,935.178 1140.33,918.516C1124.53,959.609 1093.9,1005.08 1042.22,1024.97L1040.88,1024.13C1038.65,1019.42 1039.37,1003.03 1039.39,997.168C1040.89,992.446 1042.63,987.628 1044.25,982.917Z" style="fill:rgb(254,254,254);fill-rule:nonzero;"/>
            <path d="M1903.02,918.196C1947.93,936.212 1983.9,944.939 2001.6,985.621L2004.59,996.071L2004.5,997.354C2003.97,1006.14 2007.74,1017.08 2002.65,1023.23C1999.67,1022.95 1999.79,1022.98 1996.78,1022.36C1946.78,1003.7 1920.81,955.538 1903.02,918.196Z" style="fill:rgb(254,254,254);fill-rule:nonzero;"/>
            <path d="M1244.2,1345.83C1280.2,1378.12 1293.9,1406.58 1304.36,1447.84C1303.58,1460.8 1304.44,1468.36 1307.32,1481.17L1306,1482.26C1304.42,1480.13 1302.43,1478.46 1300.42,1476.54C1277.17,1474.78 1258.57,1447.09 1252.9,1431.57C1251.94,1428.93 1252.3,1428.71 1249.64,1426.45C1242.73,1398.15 1242.24,1374.42 1244.2,1345.83Z" style="fill:rgb(254,254,254);fill-rule:nonzero;"/>
        </g>
    </g>
</svg>
